<svg xmlns="http://www.w3.org/2000/svg" width="53.081" height="70.777" viewBox="0 0 53.081 70.777">
  <g id="location-icon" transform="translate(-156.15 -21.536)">
    <path id="Path_22388" data-name="Path 22388" d="M182.745,208.715c-.229,0-.441,0-.671-.019a26.537,26.537,0,0,1-6.929-51.954l1.128-.336.578,1.027c.329.585.656,1.155,1.012,1.726,1.76,2.912,3.688,5.645,4.883,7.281,1.2-1.635,3.122-4.362,4.872-7.249.343-.573.69-1.165,1.022-1.757l.578-1.028,1.13.337a26.538,26.538,0,0,1-7.025,51.958c-.127.012-.343.014-.576.014Zm0-2.949c.149,0,.288,0,.426-.01a23.59,23.59,0,0,0,7.436-45.827c-.154.264-.31.526-.465.786a109.7,109.7,0,0,1-6.231,9.093l-1.166,1.508-1.166-1.508a108.362,108.362,0,0,1-6.229-9.1c-.159-.255-.314-.512-.468-.774a23.59,23.59,0,0,0,7.336,45.823c.232.016.375.016.528.014Z" transform="translate(-0.05 -116.404)"/>
    <path id="Path_22389" data-name="Path 22389" d="M257.09,216.136c-.229,0-.441,0-.671-.019-6.342-.494-11.608-7.811-13.418-18.64a47.763,47.763,0,0,1,0-15.768c1.115-6.644,3.573-12.115,6.922-15.4L251.255,165l.964,1.6c1.752,2.9,3.677,5.628,4.871,7.262,1.2-1.635,3.122-4.362,4.872-7.249l.967-1.6,1.328,1.31c3.353,3.3,5.811,8.769,6.922,15.389a47.821,47.821,0,0,1,0,15.768c-1.809,10.823-7.079,18.14-13.427,18.636-.211.017-.427.018-.66.018Zm0-2.949c.149,0,.288,0,.426-.01,4.8-.374,9.224-7.03,10.754-16.188a44.889,44.889,0,0,0,0-14.782,28.387,28.387,0,0,0-4.844-12.373c-2.552,4-5.052,7.238-5.171,7.392l-1.166,1.508-1.166-1.508c-.119-.154-2.622-3.4-5.175-7.407-2.261,2.929-3.99,7.321-4.839,12.382a44.835,44.835,0,0,0,0,14.783c1.532,9.164,5.946,15.819,10.736,16.193.149.011.29.011.445.01Z" transform="translate(-74.395 -123.825)"/>
    <path id="Path_22390" data-name="Path 22390" d="M182.688,289.876c-12.865,0-26.538-3.617-26.538-10.321s13.673-10.321,26.537-10.321,26.537,3.617,26.537,10.321-13.672,10.321-26.537,10.321Zm0-17.694c-14.614,0-23.589,4.293-23.589,7.373s8.974,7.373,23.589,7.373,23.588-4.294,23.588-7.373S197.3,272.183,182.688,272.183Z" transform="translate(0 -213.784)"/>
    <path id="Path_22391" data-name="Path 22391" d="M339.26,247.69h2.949v38.336H339.26Z" transform="translate(-158.039 -195.19)"/>
    <path id="Path_22392" data-name="Path 22392" d="M275.68,54.91,274.514,53.4a108.38,108.38,0,0,1-6.229-9.1c-.37-.591-.719-1.2-1.07-1.824-2.24-3.974-3.329-6.936-3.329-9.054a11.795,11.795,0,1,1,23.589,0c0,2.119-1.089,5.081-3.33,9.056-.345.614-.705,1.232-1.067,1.834a109.69,109.69,0,0,1-6.231,9.093Zm0-30.424a8.9,8.9,0,0,0-8.845,8.935c0,1.083.512,3.282,2.95,7.607.33.586.657,1.156,1.013,1.727,1.76,2.912,3.688,5.645,4.883,7.281,1.2-1.635,3.122-4.362,4.872-7.249.343-.573.69-1.165,1.022-1.757,2.44-4.327,2.952-6.526,2.952-7.609a8.9,8.9,0,0,0-8.845-8.935Z" transform="translate(-92.985 0)"/>
    <path id="Path_22393" data-name="Path 22393" d="M312.857,76.41a5.9,5.9,0,1,1,5.9-5.9A5.9,5.9,0,0,1,312.857,76.41Zm0-8.847a2.949,2.949,0,1,0,2.948,2.949A2.951,2.951,0,0,0,312.857,67.563Z" transform="translate(-130.162 -37.18)"/>
  </g>
</svg>
