<svg xmlns="http://www.w3.org/2000/svg" width="53.299" height="48.111" viewBox="0 0 53.299 48.111">
  <g id="phone-icon" transform="translate(-100.8 -55.055)">
    <path id="Path_22376" data-name="Path 22376" d="M108.765,101.466a6.187,6.187,0,0,0,4.3,1.7h3.911a2.3,2.3,0,0,0,2.3-2.485l-.682-8.675A2.306,2.306,0,0,0,116.55,89.9l-3.338-.371h0a1.937,1.937,0,0,1-1.179-.564c-1.172-1.218-3.144-4.117-3.144-9.853s1.972-8.634,3.146-9.853a1.931,1.931,0,0,1,1.179-.563l3.338-.371h0a2.305,2.305,0,0,0,2.042-2.108l.686-8.675h0a2.305,2.305,0,0,0-2.3-2.486h-3.911a6.189,6.189,0,0,0-4.3,1.7c-2.976,2.847-7.967,9.539-7.967,22.355s4.992,19.507,7.965,22.355Zm1.244-43.412a4.4,4.4,0,0,1,3.062-1.2h3.911a.507.507,0,0,1,.506.547l-.685,8.675a.508.508,0,0,1-.45.464l-3.339.371a3.725,3.725,0,0,0-2.276,1.1c-1.361,1.413-3.647,4.734-3.647,11.1s2.286,9.687,3.649,11.1a3.73,3.73,0,0,0,2.275,1.1l3.339.371a.507.507,0,0,1,.449.464l.685,8.675a.508.508,0,0,1-.506.548h-3.911a4.4,4.4,0,0,1-3.062-1.2c-2.77-2.649-7.414-8.908-7.414-21.057s4.644-18.407,7.413-21.056Z"/>
    <path id="Path_22377" data-name="Path 22377" d="M353.236,104.23H333.36a.9.9,0,0,0-.9.9v10.566a.9.9,0,0,0,.9.9h19.876a.9.9,0,0,0,.9-.9V105.128A.9.9,0,0,0,353.236,104.23Zm-.9,10.565H334.257v-8.769h18.079Z" transform="translate(-206.887 -43.917)"/>
    <path id="Path_22378" data-name="Path 22378" d="M338.01,239.57h-4.656a.9.9,0,0,0-.9.9v4.656a.9.9,0,0,0,.9.9h4.656a.9.9,0,0,0,.9-.9v-4.656A.9.9,0,0,0,338.01,239.57Zm-.9,4.656h-2.859v-2.859h2.859Z" transform="translate(-206.883 -164.783)"/>
    <path id="Path_22379" data-name="Path 22379" d="M409.17,239.57h-4.656a.9.9,0,0,0-.9.9v4.656a.9.9,0,0,0,.9.9h4.656a.9.9,0,0,0,.9-.9v-4.656A.9.9,0,0,0,409.17,239.57Zm-.9,4.656h-2.859v-2.859h2.859Z" transform="translate(-270.433 -164.783)"/>
    <path id="Path_22380" data-name="Path 22380" d="M480.34,239.57h-4.656a.9.9,0,0,0-.9.9v4.656a.9.9,0,0,0,.9.9h4.656a.9.9,0,0,0,.9-.9v-4.656A.9.9,0,0,0,480.34,239.57Zm-.9,4.656h-2.859v-2.859h2.859Z" transform="translate(-333.991 -164.783)"/>
    <path id="Path_22381" data-name="Path 22381" d="M338.01,311.98h-4.656a.9.9,0,0,0-.9.9v4.656a.9.9,0,0,0,.9.9h4.656a.9.9,0,0,0,.9-.9v-4.656A.9.9,0,0,0,338.01,311.98Zm-.9,4.656h-2.859v-2.859h2.859Z" transform="translate(-206.883 -229.45)"/>
    <path id="Path_22382" data-name="Path 22382" d="M409.17,311.98h-4.656a.9.9,0,0,0-.9.9v4.656a.9.9,0,0,0,.9.9h4.656a.9.9,0,0,0,.9-.9v-4.656A.9.9,0,0,0,409.17,311.98Zm-.9,4.656h-2.859v-2.859h2.859Z" transform="translate(-270.433 -229.45)"/>
    <path id="Path_22383" data-name="Path 22383" d="M480.34,311.98h-4.656a.9.9,0,0,0-.9.9v4.656a.9.9,0,0,0,.9.9h4.656a.9.9,0,0,0,.9-.9v-4.656A.9.9,0,0,0,480.34,311.98Zm-.9,4.656h-2.859v-2.859h2.859Z" transform="translate(-333.991 -229.45)"/>
    <path id="Path_22384" data-name="Path 22384" d="M338.01,384.38h-4.656a.9.9,0,0,0-.9.9v4.656a.9.9,0,0,0,.9.9h4.656a.9.9,0,0,0,.9-.9v-4.656A.9.9,0,0,0,338.01,384.38Zm-.9,4.656h-2.859v-2.859h2.859Z" transform="translate(-206.883 -294.107)"/>
    <path id="Path_22385" data-name="Path 22385" d="M409.17,384.38h-4.656a.9.9,0,0,0-.9.9v4.656a.9.9,0,0,0,.9.9h4.656a.9.9,0,0,0,.9-.9v-4.656A.9.9,0,0,0,409.17,384.38Zm-.9,4.656h-2.859v-2.859h2.859Z" transform="translate(-270.433 -294.107)"/>
    <path id="Path_22386" data-name="Path 22386" d="M480.34,384.38h-4.656a.9.9,0,0,0-.9.9v4.656a.9.9,0,0,0,.9.9h4.656a.9.9,0,0,0,.9-.9v-4.656A.9.9,0,0,0,480.34,384.38Zm-.9,4.656h-2.859v-2.859h2.859Z" transform="translate(-333.991 -294.107)"/>
    <path id="Path_22387" data-name="Path 22387" d="M224.082,55.055H197.92a2.755,2.755,0,0,0-2.732,2.524l-.686,8.71a3.193,3.193,0,0,1-2.833,2.924l-3.327.371a1.121,1.121,0,0,0-.424.127.9.9,0,0,0-.228.172c-.867.9-2.89,3.614-2.89,9.229s2.026,8.33,2.891,9.222a1.016,1.016,0,0,0,.638.3l3.34.372h0a3.192,3.192,0,0,1,2.833,2.926l.684,8.684.9-.071-.894.09a2.755,2.755,0,0,0,2.732,2.527h26.16a5.04,5.04,0,0,0,5.034-5.028V60.09a5.04,5.04,0,0,0-5.034-5.035Zm3.237,43.077a3.24,3.24,0,0,1-3.237,3.237H197.921a.947.947,0,0,1-.941-.867v-.023L196.3,91.8h0a4.991,4.991,0,0,0-4.426-4.573l-3.072-.341c-.789-.919-2.2-3.2-2.2-7.772s1.409-6.848,2.195-7.77L191.867,71h0a4.99,4.99,0,0,0,4.426-4.57l.684-8.708a.949.949,0,0,1,.941-.869h26.164a3.24,3.24,0,0,1,3.237,3.238Z" transform="translate(-75.017 -0.001)"/>
  </g>
</svg>
