<svg xmlns="http://www.w3.org/2000/svg" width="53.708" height="55.85" viewBox="0 0 53.708 55.85">
  <path id="support-icon" d="M97.26,29.17A22.838,22.838,0,0,1,106.441,18.2a27.584,27.584,0,0,1,29.267,0,22.84,22.84,0,0,1,9.181,10.971c.208.531.549,1.266.7,1.788a25.072,25.072,0,0,1,1,7,19.015,19.015,0,0,1-.576,4.736,2.881,2.881,0,0,1,1.835,2.981l-1.033,11.81a2.878,2.878,0,0,1-3.106,2.609l-2.348-.205c-.061-.009-.76,1.087-1.1,1.37a3.533,3.533,0,0,1-2.582.819l-.8,2.625a5.321,5.321,0,0,1-3.655,3.48,9.688,9.688,0,0,1-5.646.011l-.607-.173a4.2,4.2,0,0,1-.506.613,4.1,4.1,0,0,1-2.907,1.208H118.59a4.116,4.116,0,0,1,0-8.232h4.972a4.128,4.128,0,0,1,4.075,3.545l.748.214a6.794,6.794,0,0,0,3.924.029,2.473,2.473,0,0,0,1.748-1.5l.6-2.086-.531-.046A3.559,3.559,0,0,1,130.967,58q.655-7.814,1.367-15.632a3.559,3.559,0,0,1,3.769-3.157l3.548.31a3.565,3.565,0,0,1,3.161,2.794l.083.006.176.015a15.978,15.978,0,0,0,.578-4.374,23.07,23.07,0,0,0-.615-5.11l-4.3,0a1.471,1.471,0,0,1-1.374-.947,14.848,14.848,0,0,0-6.179-6.787,20.079,20.079,0,0,0-20.208,0,14.841,14.841,0,0,0-6.2,6.844,1.468,1.468,0,0,1-1.349.889H99.113a23.1,23.1,0,0,0-.614,5.107,15.97,15.97,0,0,0,.574,4.357l.041,0,.086-.006a3.564,3.564,0,0,1,3.159-2.788l3.484-.3a3.558,3.558,0,0,1,3.84,3.226l1.357,15.51a3.55,3.55,0,0,1-3.226,3.819l-3.485.31a3.564,3.564,0,0,1-3.595-2.2l-.085.009L98.3,60.1a2.879,2.879,0,0,1-3.1-2.609L94.157,45.628a2.862,2.862,0,0,1,.662-2.089,2.949,2.949,0,0,1,1.306-.885,19.024,19.024,0,0,1-.565-4.691,30.031,30.031,0,0,1,.968-6.883,16.02,16.02,0,0,1,.732-1.909Zm26.3,35.386H118.59a1.176,1.176,0,0,0,0,2.351h4.972a1.176,1.176,0,0,0,0-2.351Zm15.185-7.7,1.047-11.972.155-1.779a.612.612,0,0,0-.141-.447.6.6,0,0,0-.41-.213l-3.486-.3a.609.609,0,0,0-.445.141.6.6,0,0,0-.213.4c-.514,5.137-.927,10.354-1.356,15.5a.61.61,0,0,0,.141.445.6.6,0,0,0,.4.213h.007l3.484.3a.613.613,0,0,0,.447-.141.6.6,0,0,0,.214-.41l.153-1.743Zm2.939.112,2.208.194,1.025-11.723-2.207-.193-1.026,11.722Zm-39.47-12.08L103.258,56.8l.157,1.8a.61.61,0,0,0,.661.551l3.555-.31a.623.623,0,0,0,.481-.628L106.756,42.7a.6.6,0,0,0-.213-.41.611.611,0,0,0-.447-.141l-3.484.3a.6.6,0,0,0-.41.214.617.617,0,0,0-.141.447Zm-2.918.358-2.208.193,1.026,11.722,2.207-.193Zm8.716-24.572a19.963,19.963,0,0,0-7.891,9.237h2.362a17.93,17.93,0,0,1,6.993-7.32,22.977,22.977,0,0,1,23.193,0,17.932,17.932,0,0,1,6.993,7.32h2.361a19.965,19.965,0,0,0-7.891-9.237,24.663,24.663,0,0,0-26.121,0Z" transform="translate(-94.146 -13.997)"/>
</svg>
