<svg xmlns="http://www.w3.org/2000/svg" width="20" height="20" viewBox="0 0 20 20">
  <g id="american-football" transform="translate(-150.287 -79.743)">
    <path id="Path_23696" data-name="Path 23696" d="M161,99.7a5.877,5.877,0,0,1-1.391,0,10.088,10.088,0,0,1-7.1-3.739,9.547,9.547,0,0,1-2.1-7.7A9.991,9.991,0,1,1,161,99.7ZM165.262,89a1.183,1.183,0,0,0-.236-.341c-.732-.593-1.47-1.18-2.227-1.737a.739.739,0,0,0-.581-.05c-.864.282-1.708.624-2.575.9a.654.654,0,0,0-.513.615c-.143,1.029-.314,2.055-.449,3.087a.6.6,0,0,0,.151.459c.769.652,1.557,1.286,2.35,1.907a.546.546,0,0,0,.437.112c.942-.4,1.876-.817,2.8-1.25a.521.521,0,0,0,.252-.327c.2-1.085.379-2.175.583-3.375Zm-2.951-4.566a6.554,6.554,0,0,1,.065-.783.58.58,0,0,0-.384-.693c-.648-.33-1.268-.71-1.913-1.043a.93.93,0,0,0-.6-.106c-.777.215-1.545.47-2.311.724a1.055,1.055,0,0,0-.864,1.149,3.924,3.924,0,0,1-.09.735c-.163,1.205-.163,1.208.878,1.781a5.24,5.24,0,0,0,1.789.909,5.446,5.446,0,0,0,1.966-.587C162.244,86.023,162.244,86.02,162.312,84.429ZM157.6,97.561c.886-.137,1.705-.255,2.519-.406a.492.492,0,0,0,.281-.324c.157-.607.258-1.225.426-1.829a.515.515,0,0,0-.233-.621c-.752-.593-1.484-1.214-2.247-1.8a.931.931,0,0,0-.623-.165c-.8.1-1.6.229-2.4.38a.6.6,0,0,0-.39.338,16.329,16.329,0,0,0-.457,1.82.663.663,0,0,0,.2.537c.83.652,1.683,1.275,2.536,1.9a1.554,1.554,0,0,0,.384.168Zm9.189-3.353c.614-.313,1.2-.587,1.756-.9a.9.9,0,0,0,.339-.447,8.677,8.677,0,0,0,.477-4.471,2.824,2.824,0,0,0-1.456-1.023.751.751,0,0,0-.275.2c-.421.372-.855.73-1.248,1.13a1.4,1.4,0,0,0-.37.657c-.194.97-.356,1.946-.5,2.922a.858.858,0,0,0,.123.584c.348.459.746.878,1.155,1.351ZM155.572,83.115c-.323-.053-.567-.081-.808-.134a1,1,0,0,0-1.046.347,9.562,9.562,0,0,0-2.118,3.487c-.4,1.183-.393,1.172.771,1.625a.437.437,0,0,0,.589-.145c.693-.822,1.405-1.628,2.106-2.441a.625.625,0,0,0,.168-.294c.121-.8.224-1.6.337-2.444Zm-4.437,5.716c0,.375,0,.7,0,1.026a9.025,9.025,0,0,0,1.461,4.8c.2.319.959.453,1.043.179.233-.752.4-1.524.572-2.293.02-.087-.087-.207-.14-.308a22.958,22.958,0,0,1-1.116-2.148c-.328-.833-1.035-1.007-1.82-1.261Zm9.132-8.26c-.048.053-.1.106-.146.159.135.168.236.391.41.5.707.425,1.433.819,2.157,1.211a1.381,1.381,0,0,0,.468.123c.816.1,1.632.207,2.451.291a1.555,1.555,0,0,0,.46-.106,8.545,8.545,0,0,0-5.8-2.175Zm-2.642,17.88a9.071,9.071,0,0,0,5.7-.134A11.242,11.242,0,0,0,157.625,98.45Zm9.13-15.221-.191.056a2.776,2.776,0,0,0,.151.461c.443.825.931,1.628,1.332,2.472a1.423,1.423,0,0,0,.973.733,9.018,9.018,0,0,0-2.266-3.722Zm-1.475,14.1a6.738,6.738,0,0,0,2.712-2.869,4.073,4.073,0,0,0-1.015.632C166.345,95.841,165.793,96.646,165.28,97.334Z" transform="translate(0 0)"/>
  </g>
</svg>
