<svg xmlns="http://www.w3.org/2000/svg" width="19.987" height="20" viewBox="0 0 19.987 20">
  <g id="badminton" transform="translate(-130.379 -60.099)">
    <path id="Path_23728" data-name="Path 23728" d="M131.74,360.66l4.05,4.05-.522.522a2.864,2.864,0,1,1-4.05-4.05Z" transform="translate(0 -285.972)"/>
    <path id="Path_23729" data-name="Path 23729" d="M197.5,70.011v-.005c-.035-.025-.076-.053-.122-.081a2.8,2.8,0,0,0-1.928-.59l-.03.071c-.008.015-.013.03-.02.043l-.023.043c-.008.015-.015.028-.023.041l-.023.041a.332.332,0,0,1-.025.038.749.749,0,0,1-.051.073.5.5,0,0,1-.056.068c-.01.01-.018.023-.028.033a.389.389,0,0,0-.03.033l-.03.03-.165.157-.041.038-.048.046c-.033.03-.063.061-.1.089-.051.048-.1.094-.155.139-.033.03-.068.058-.1.089s-.043.038-.066.056-.043.038-.066.056l-.051.043a.11.11,0,0,1-.018.015c-.015.013-.033.025-.048.041l-.066.053c-.1.081-.2.16-.3.236l-.079.061-.053.041-.058.043c-.028.02-.053.041-.079.058s-.046.033-.068.048c-.137.1-.274.193-.408.281-.025.015-.048.033-.073.048s-.071.046-.1.068a.053.053,0,0,0-.015.01c-.02.013-.041.025-.058.038l-.073.046-.073.046c-.025.015-.048.03-.073.043s-.048.028-.071.043l-.142.084-.139.079-.068.038c-.046.025-.091.051-.137.073l-.068.035-.048.025c-.048.025-.1.048-.142.071l-.063.03c-.071.035-.142.068-.21.1-.02.01-.043.02-.063.028a.156.156,0,0,1-.03.013c-.02.008-.041.018-.058.025-.038.018-.079.033-.117.051s-.071.03-.106.043-.081.033-.119.048l-.058.023-.058.023c-.02.008-.038.015-.056.02s-.038.013-.056.02-.038.013-.056.02l-.053.02a.441.441,0,0,1-.053.018l-.053.018-.025.008c-.048.063-.094.129-.139.2-.193.279-.375.532-.545.763l-.512.251-.246.122c-.018.008-.033.018-.051.025q-.608.3-1.176.57c-.314-.269-.638-.555-.963-.854l.8-.578a.5.5,0,0,0,.043-.033l.233-.172c.157-.114.319-.233.481-.355.236-.043.484-.086.747-.129a7.69,7.69,0,0,0,1.1-.263,11.324,11.324,0,0,0,4.37-2.749,1.06,1.06,0,0,0,.251-.428,4.041,4.041,0,0,0,.076-1.639q-.011-.087-.023-.152v0l-.132-.063a4.52,4.52,0,0,0-1.386-.413c-.005.015-.013.033-.018.048l-.015.035c-.005.01-.008.02-.013.03a.156.156,0,0,1-.018.035l-.008.018c-.005.013-.013.025-.018.035s-.013.025-.02.035l-.008.015a.57.57,0,0,1-.033.051c-.008.01-.013.02-.02.03s0,0,0,.005l-.03.041c-.231.3-.469.59-.712.866l-.068.076-.16.175-.061.063-.056.061c-.018.02-.035.038-.056.058l-.114.119-.071.071c-.025.025-.051.051-.076.073-.1.1-.205.2-.307.291l-.073.066c-.025.023-.053.046-.079.071s-.048.043-.073.063-.061.051-.089.076l-.071.061c-.025.023-.053.043-.079.066s-.053.043-.079.063-.043.035-.063.051-.063.048-.094.073l-.066.051c-.1.076-.2.147-.294.218-.023.015-.043.03-.066.048-.043.03-.089.063-.132.091l-.076.053-.127.084-.061.038-.1.061-.063.038c-.028.015-.053.033-.081.048s-.043.025-.063.038l-.051.03-.046.025c-.109.061-.215.122-.324.177a.8.8,0,0,1-.081.041c-.028.013-.053.028-.081.041-.053.025-.106.053-.16.076h0c-.056.025-.109.051-.165.073s-.109.048-.165.071c-.028.013-.058.023-.086.035-.053.023-.106.043-.162.063l-.084.03c-.028.056-.058.111-.086.167-.157.317-.309.608-.454.872-.157.109-.314.215-.471.322-.076.051-.152.1-.225.155-.015.01-.03.023-.048.033l-.818.555c-.223-.213-.448-.431-.669-.646.3-.3.618-.611.945-.935l.038-.038c.068-.068.137-.134.205-.205l.423-.423c.225-.079.464-.16.72-.241l.134-.046.048-.018c.033-.013.066-.023.1-.035l.119-.046.19-.076.137-.058.018-.008.149-.068a11.3,11.3,0,0,0,4.056-3.448.993.993,0,0,0,.17-.388,3.892,3.892,0,0,0-.157-1.705c-.015-.058-.03-.106-.043-.147v0c-.038-.013-.086-.025-.139-.043a4.293,4.293,0,0,0-1.53-.193c0,.005,0,.013,0,.018a.023.023,0,0,1,0,.013.549.549,0,0,1-.01.063c-.005.033-.01.063-.018.094,0,.013-.008.028-.01.041a.079.079,0,0,0-.005.02c0,.008,0,.013-.005.02s0,.013-.005.018-.008.025-.013.038-.008.02-.01.028,0,.005,0,.005a.177.177,0,0,1-.008.02l-.015.038a.256.256,0,0,1-.018.038c-.013.025-.023.048-.038.073l-.056.1-.046.084c-.023.041-.046.081-.068.119s-.038.066-.058.1l-.046.076c-.015.028-.033.053-.048.081-.033.056-.066.111-.1.165l-.038.061c-.025.043-.053.084-.079.124l-.056.086c-.018.028-.038.056-.056.084s-.033.051-.051.076-.046.066-.066.1l-.1.142-.061.086c-.025.033-.048.066-.073.1s-.048.066-.073.1-.048.066-.073.1l-.053.068-.053.068-.053.068c-.056.068-.109.137-.165.205-.025.03-.051.061-.076.089s-.035.041-.051.061l-.053.061-.076.089c-.013.015-.028.033-.043.048-.053.061-.106.119-.162.177-.023.023-.043.048-.066.071-.1.1-.193.2-.291.3l-.068.068c-.046.046-.094.089-.139.132-.094.086-.187.172-.284.253l-.144.122c-.048.041-.1.079-.144.117-.1.079-.2.155-.3.228s-.18.129-.271.19c-.041.028-.081.053-.122.079s-.086.056-.129.081l-.076.046-.076.046-.076.046-.068.038-.03.091c-.109.337-.213.649-.317.93-.139.132-.279.261-.418.39-.066.063-.134.124-.2.185l-.043.038q-.452.422-.854.793c-.223-.228-.443-.456-.656-.682.175-.258.36-.53.555-.816l.033-.048c.051-.076.1-.149.155-.226.106-.155.213-.314.322-.471.264-.144.555-.294.872-.454.081-.041.165-.084.251-.132a10.768,10.768,0,0,0,4.072-4.376,1.042,1.042,0,0,0,.111-.507v-.013a4.117,4.117,0,0,0-.423-1.558c-.023-.051-.046-.1-.063-.132h-.005c-.041-.008-.094-.015-.152-.023a4.591,4.591,0,0,0-1.393.01c-.013.033-.025.063-.035.094s-.013.033-.02.048c-.013.03-.023.061-.035.089s-.028.068-.041.1-.023.058-.035.086c-.02.046-.038.091-.058.134-.01.023-.018.043-.028.066,0,.005,0,.008-.005.013l-.03.068c-.013.028-.023.053-.035.081-.033.076-.068.149-.1.223-.025.053-.051.109-.079.162l-.038.081c-.005.01-.01.02-.015.033s-.025.048-.035.073-.038.073-.056.111c-.013.023-.023.046-.035.068-.025.046-.048.091-.073.137-.015.03-.033.061-.048.091a.108.108,0,0,1-.01.018s0,0,0,.005c-.018.03-.033.061-.051.089s-.033.061-.051.089-.028.046-.041.071c-.023.041-.046.079-.068.117a.189.189,0,0,0-.018.03v0c-.01.018-.023.035-.033.053l-.035.058c-.023.035-.043.071-.066.106l-.023.035c-.025.038-.048.076-.073.114,0,.005-.008.01-.01.015-.023.035-.048.071-.071.106l-.008.013c-.025.038-.051.076-.079.114-.013.02-.028.041-.041.058s-.028.038-.041.058c0,0,0,.005-.005.008l-.084.114c-.018.025-.038.051-.056.076s-.056.076-.086.114-.058.073-.086.111l-.038.046c-.013.018-.028.033-.041.051s-.035.043-.051.063c0,0,0,0,0,.005l-.005.005c-.013.015-.025.033-.041.048l-.043.051,0,0c-.013.015-.025.03-.041.046s-.008.01-.013.013l-.111.127c-.02.023-.038.043-.058.063l-.005.005-.073.081c-.018.02-.038.038-.056.058s-.043.046-.063.066-.025.025-.038.041l-.051.051-.061.061c-.038.038-.076.076-.117.111l-.051.046-.005.005,0,0c-.023.023-.048.043-.071.066l-.068.061q-.27.239-.555.448a7.367,7.367,0,0,0-.18.823q-.065.4-.129.745c-.122.165-.241.324-.355.481-.058.079-.114.157-.172.236a.278.278,0,0,1-.033.043c-.2.271-.39.535-.575.79q-.407-.448-.768-.872c.18-.372.37-.765.573-1.173.008-.018.018-.035.025-.051.041-.081.079-.162.122-.246.084-.17.167-.34.251-.512.231-.172.484-.352.763-.545.02-.013.041-.028.058-.041l.053-.038c.068-.048.134-.1.2-.149l.066-.051.066-.053c.043-.035.086-.071.129-.109s.086-.073.129-.111c.015-.015.033-.028.048-.043.048-.043.1-.086.142-.132.063-.061.127-.122.187-.182l.076-.079c.025-.025.051-.053.076-.081s.038-.041.056-.061l.028-.03.028-.03c.018-.02.038-.041.056-.063s.038-.041.056-.063.048-.056.073-.086.048-.058.073-.086.048-.058.071-.089l.114-.144c.038-.048.076-.1.111-.147s.073-.1.109-.149.061-.084.089-.127c0,0,.005-.005.005-.008l.033-.048a.055.055,0,0,1,.01-.013c.018-.025.035-.051.051-.076a.541.541,0,0,0,.041-.063.17.17,0,0,0,.018-.028l.068-.106c.018-.028.035-.053.051-.081s.035-.053.051-.081.033-.056.051-.084.033-.056.051-.084.033-.056.048-.084.023-.041.035-.061a.279.279,0,0,0,.02-.038l.043-.073.048-.086.048-.086.046-.084s0-.005,0-.008a.056.056,0,0,0,.008-.013l.038-.073c.008-.018.018-.033.025-.051a.089.089,0,0,0,.01-.023.009.009,0,0,0,0-.005.28.28,0,0,1,.015-.028l.038-.076c.013-.025.025-.051.038-.079.1-.21.2-.428.3-.651.015-.033.028-.066.043-.1.008-.015.013-.033.02-.048s.018-.043.025-.063.025-.058.035-.089.028-.068.041-.1c.025-.068.053-.137.079-.205.005-.013.008-.023.01-.03l0-.005.005-.02c0-.005,0-.01.005-.013a2.915,2.915,0,0,0-.6-1.885c-.028-.043-.056-.084-.081-.122h-.157c-.59.008-1.594.122-1.936.6a10.358,10.358,0,0,0-2.143,5.7c-.005.251-.01.492-.02.717l-.281.524c-.046.086-.091.172-.137.256l-.025.048c-.993,1.87-1.888,3.724-2.328,4.654a.358.358,0,0,0-.438.056l-.712.712,4.819,4.819.712-.712a.366.366,0,0,0,0-.512l-.079-.079a49.394,49.394,0,0,0,4.789-2.176l.048-.025.256-.137.527-.281c.226-.01.466-.018.717-.02a10.26,10.26,0,0,0,5.688-2.146c.476-.342.59-1.345.6-1.936,0-.053,0-.106,0-.152Zm-12.2,2.843c.2.2.4.39.6.583-.413.279-.79.53-1.125.752l-.426-.413c.289-.279.608-.588.95-.922Zm-1.214-1.236c.188.2.38.4.575.6-.36.332-.687.628-.978.894-.124-.127-.241-.246-.35-.362.22-.337.474-.712.752-1.127Zm-1.333-1.464q.334.388.7.793c-.284.393-.547.76-.785,1.1-.18-.2-.357-.393-.532-.588C182.335,71.055,182.538,70.622,182.76,70.153Zm-1.416,3.2c.144-.388.337-.854.578-1.388.152.167.3.337.461.5-.329.466-.6.851-.793,1.127Zm1.708-.172c.084.086.17.175.258.269q-.616.551-.973.849Q182.6,73.877,183.052,73.178Zm-.015,1.865c.22-.208.547-.519.955-.912l.355.347q-.726.475-1.145.732Zm1.089,1.087-.19-.19c.276-.193.661-.461,1.122-.79q.277.258.555.509a10.014,10.014,0,0,1-1.487.471Zm2.009-.684c-.218-.2-.438-.393-.656-.6.337-.241.707-.5,1.1-.785.3.274.593.537.882.788C186.992,75.071,186.551,75.271,186.135,75.446Z" transform="translate(-47.14 0)"/>
  </g>
</svg>
