<svg xmlns="http://www.w3.org/2000/svg" width="32" height="32" viewBox="0 0 32 32">
  <g id="basketball" transform="translate(-96.929 -29.278)">
    <path id="Path_23697" data-name="Path 23697" d="M101.309,108.792A32.051,32.051,0,0,1,106.748,107l.074-.018a73.282,73.282,0,0,1,12.263-1.257c-.205-.924-.431-1.733-.564-2.186a4.228,4.228,0,0,1-.74.056,13.991,13.991,0,0,1-2.729-.359,27.5,27.5,0,0,1-4.359-1.567c-.719-.3-1.4-.58-1.621-.638a11.123,11.123,0,0,0-3.2-.459,13.71,13.71,0,0,0-5.082,1.015,15.694,15.694,0,0,0-3.863,10.086,13,13,0,0,1,4.38-2.883Z" transform="translate(0 -66.789)"/>
    <path id="Path_23698" data-name="Path 23698" d="M462.286,106.761c.185.6.375,1.3.609,2.211,4.14.053,6.36.736,7.521,1.336a15.812,15.812,0,0,0-3.83-6.245,2.866,2.866,0,0,1-.747,1.5,5,5,0,0,1-3.553,1.2Z" transform="translate(-342.263 -70.057)"/>
    <path id="Path_23699" data-name="Path 23699" d="M113.182,214.531c.8-.877,4.012-4.2,4.609-4.794a9.193,9.193,0,0,1,5.7-2.875,20.72,20.72,0,0,0-.261-2.56,53.056,53.056,0,0,0-13.07,1.863c-5.488,1.456-8.011,4.156-9.085,5.8a15.753,15.753,0,0,0,4.349,8.257c2.417-.985,7.044-4.938,7.759-5.689Z" transform="translate(-3.882 -163.656)"/>
    <path id="Path_23700" data-name="Path 23700" d="M216.351,32.828c3.629,1.934,6.139,2.445,6.96,2.445a1.186,1.186,0,0,0,.432-.055,1.548,1.548,0,0,0-.049-.174c-.015-.046-.029-.09-.04-.13-1.582-4.18-4.257-5.387-4.946-5.635h-.023a16.037,16.037,0,0,0-8.861,2.651,11.464,11.464,0,0,1,1.592-.11,11.872,11.872,0,0,1,4.937,1.008Z" transform="translate(-105.758)"/>
    <path id="Path_23701" data-name="Path 23701" d="M215.754,284.915a26.173,26.173,0,0,0,1.132-8.47c-.061-.383-.237-.415-.428-.415a3.525,3.525,0,0,0-1.167.344,3.611,3.611,0,0,1-.4.153c-2.472,1.04-5.574,4.5-7.24,6.36-.373.416-.666.743-.881.964a28.667,28.667,0,0,1-6.025,5.228,16.031,16.031,0,0,0,9.434,3.049h.016c2.348-1.111,4.173-3.482,5.555-7.213Z" transform="translate(-97.258 -230.849)"/>
    <path id="Path_23702" data-name="Path 23702" d="M476.23,204.623c.079.572.126,1.421.166,2.248l.013.253a5.727,5.727,0,0,1,5.135,3.314l.039.072c1.008,1.84.9,4.707.691,6.509a15.734,15.734,0,0,0,1.785-10.107c-2.247-2.066-5.931-2.295-7.437-2.295-.149,0-.281,0-.393.005Z" transform="translate(-355.325 -164.081)"/>
    <path id="Path_23703" data-name="Path 23703" d="M430.14,273.139a4.094,4.094,0,0,0-2.668-2.273,1.171,1.171,0,0,0-.317-.05c-.491,0-.525.55-.526.573-.247,6.775-.758,8.523-1.131,9.8l-.065.223a17.984,17.984,0,0,1-2.438,5.16,16.029,16.029,0,0,0,7.751-5.117,11.728,11.728,0,0,0-.607-8.315Z" transform="translate(-305.455 -225.965)"/>
    <path id="Path_23704" data-name="Path 23704" d="M408.105,40.754l.095.009a3.409,3.409,0,0,0,2.453-1.013,2.007,2.007,0,0,0,.446-1.369.381.381,0,0,1,0-.1,16,16,0,0,0-6.551-3.105,16.107,16.107,0,0,1,2.859,4.944c.262.593.462.61.7.631Z" transform="translate(-288.176 -5.528)"/>
  </g>
</svg>
