<svg xmlns="http://www.w3.org/2000/svg" width="20" height="20" viewBox="0 0 20 20">
  <g id="bowling" transform="translate(-126 -56)">
    <path id="Path_23737" data-name="Path 23737" d="M136,56a10,10,0,1,0,10,10A10.013,10.013,0,0,0,136,56Zm-5.754,9.2a1.535,1.535,0,1,1,1.533-1.533A1.535,1.535,0,0,1,130.246,65.2Zm2.017-5.021a1.533,1.533,0,1,1,1.533,1.533A1.538,1.538,0,0,1,132.263,60.175Zm2.65,6.692A2.088,2.088,0,1,1,137,64.779,2.088,2.088,0,0,1,134.913,66.867Z" transform="translate(0 0)"/>
  </g>
</svg>
