<svg xmlns="http://www.w3.org/2000/svg" width="32" height="24.286" viewBox="0 0 32 24.286">
  <g id="boxing" transform="translate(-104.994 -93.977)">
    <path id="Path_23710" data-name="Path 23710" d="M104.994,103.924v4.4a9.754,9.754,0,0,0,3.04,7.028,10.607,10.607,0,0,0,7.328,2.916h8.032a5.921,5.921,0,0,0,4.071-1.615,5.444,5.444,0,0,0,1.709-3.894h-8.067a3.568,3.568,0,0,1-2.469-.981,3.28,3.28,0,0,1-1.023-2.368v-2.137a3.276,3.276,0,0,1,.993-2.42,3.567,3.567,0,0,1,2.5-1.009h4.588a1.2,1.2,0,0,1,1.032.571,1.1,1.1,0,0,1,0,1.143,1.2,1.2,0,0,1-1.032.571h-4.588a1.133,1.133,0,0,0-.784.311,1.041,1.041,0,0,0-.325.752V109.4a1.041,1.041,0,0,0,.325.752,1.133,1.133,0,0,0,.784.311H131.39V93.981H115.362a10.609,10.609,0,0,0-7.328,2.916,9.752,9.752,0,0,0-3.04,7.028Z" transform="translate(0 -0.004)"/>
    <path id="Path_23711" data-name="Path 23711" d="M530.355,93.977h-2.73v12.99h2.73a.958.958,0,0,0,.958-.958V94.935a.958.958,0,0,0-.958-.958Z" transform="translate(-394.319 0)"/>
  </g>
</svg>
