<svg xmlns="http://www.w3.org/2000/svg" width="9.63" height="19.997" viewBox="0 0 9.63 19.997">
  <g id="chess" transform="translate(-218.772 -13.418)">
    <path id="Path_23705" data-name="Path 23705" d="M248.322,396.646l6.435-.011a.522.522,0,0,0-.086-.942l-6.349,0a.476.476,0,1,0,0,.95Z" transform="translate(-27.971 -367.922)"/>
    <path id="Path_23706" data-name="Path 23706" d="M227.8,516.478l-8.478-.006a.538.538,0,1,0,0,1.075l8.535.029a.571.571,0,0,0-.057-1.1Z" transform="translate(0 -484.162)"/>
    <path id="Path_23707" data-name="Path 23707" d="M336.067,17.126a.951.951,0,0,1-.4-.022c.119,0,.227-.128.3-.233-.054-.126-.107-.246-.159-.354a1.3,1.3,0,0,1-.522.159.882.882,0,0,0,.377-.444c-.091-.17-.168-.3-.224-.388a1.7,1.7,0,0,1-.7.411c.321-.21.382-.8.385-.829-.091-.109-.178-.21-.265-.3a1.386,1.386,0,0,1-.534.72c.2-.209.164-1.061.163-1.1-.867-.868-3.029-1.248-3.122-1.325.671.585,1.064,1.7.656,2.083,2.7.842,4.553,2.774,4.6,6.621.093-1.416.742-3.218-.547-5Z" transform="translate(-108.457)"/>
    <path id="Path_23708" data-name="Path 23708" d="M247.633,430.5l-6.043.018c-.019,0-.036,0-.055-.005l-.715,2.791,7.762-.014s-.95-2.56-.949-2.789Z" transform="translate(-21.239 -401.344)"/>
    <path id="Path_23709" data-name="Path 23709" d="M253.928,79.137a5.356,5.356,0,0,0-1.3-.889.169.169,0,0,1-.085-.043,6.415,6.415,0,0,0-1.069-.423,1.72,1.72,0,0,1-.611,1.155,1.191,1.191,0,0,1-.718.229,4.694,4.694,0,0,1-2.335,2.576v.892l.448.556a1.864,1.864,0,0,0,.44-.469c.106-.165-.119.6-.178.794l.052.064.879-.445,1.577.186s1.3.015,1.806-.65a1.235,1.235,0,0,0,.123-1.142c-.026-.091.437.974.149,1.351a1.454,1.454,0,0,1-.255.252h.006l-.057.036c-.072.052-.151.093-.224.144-.514.361-1.5.345-1.525.42-.688,1.948-2.739,1.891-2.757,4.173a5.9,5.9,0,0,0,.26,1.156h5.579c3-4.137,1.584-8.71-.2-9.923Zm-3.41.91.685-.407-.375.691-.421.066.377.107.3.085-.852-.083Zm-.495,1.646c-.285.428.024.89.161,1.217s-.649-1.017-.23-1.341a10.914,10.914,0,0,1,1.727-.942,7.681,7.681,0,0,0-1.657,1.066Z" transform="translate(-27.973 -62.002)"/>
  </g>
</svg>
