<svg xmlns="http://www.w3.org/2000/svg" width="32" height="32" viewBox="0 0 32 32">
  <g id="cricket-ball" transform="translate(-101.349 -31.315)">
    <path id="Path_23694" data-name="Path 23694" d="M186.605,47.224a16,16,0,0,0-25.4-12.862.916.916,0,0,1,.113.292s0,.018.011.046c.014.063.049.19.1.369.077.271.2.665.373,1.154a1.052,1.052,0,0,1-.64,1.347,1.038,1.038,0,0,1-.355.063,1.062,1.062,0,0,1-1-.7c-.042-.123-.084-.239-.123-.352-.046-.134-.088-.257-.123-.373-.046-.137-.081-.264-.116-.376a15.634,15.634,0,0,0-1.182,1.28c0,.018.011.035.014.053.032.116.067.229.1.341v0s0,.007,0,.011v.007a0,0,0,0,0,0,0v0a.061.061,0,0,0,.014.018s0,.007.007.007a.012.012,0,0,0,0,.007c.014.042.007.084.042.13h-.007s0,0,0,.007a.032.032,0,0,0,0,.018c0,.018.011.035.014.053s.011.035.014.053.011.035.014.049.011.035.014.049l.19.591.074.222c.053.148.1.292.155.44.028.074.053.148.081.218.035.1.074.193.109.292.018.049.039.1.056.144.028.074.056.144.088.218s.06.144.088.215c.3.7.626,1.382.981,2.05s.739,1.326,1.15,1.963c.376.584.777,1.154,1.2,1.709l.063.084c.039.049.077.1.12.151.1.13.208.26.313.387.215.264.436.521.661.777a27.911,27.911,0,0,0,2.958,2.88q.385.322.781.633s.007,0,.007.007l0,0c.025.018.049.039.074.056l.211.158.4.3c.563.4,1.143.788,1.734,1.15a28.08,28.08,0,0,0,3.659,1.885c.457.19.922.369,1.39.535l.183.063.155.053c.06.021.12.042.179.06s.144.046.215.07c.088.028.172.056.257.081,0,0,.007,0,.014,0l.134.042a.012.012,0,0,1,.007,0c.053.014.1.032.155.046.088.028.176.053.267.077a29.153,29.153,0,0,0,4.067.869c.686.088,1.375.155,2.068.19h.007c.137,0,.274.035.412.035h.426a15.377,15.377,0,0,0,1.062-1.7.99.99,0,0,1-.253-.26,1.072,1.072,0,0,1-.176-.44V54.17a1.141,1.141,0,0,1-.007-.19.911.911,0,0,1,.035-.222v0s0,0,0-.007V53.73a.067.067,0,0,1,.011-.028v-.014c0-.007,0-.011.007-.018v0s0-.011,0-.014v0a.012.012,0,0,1,0-.007V53.6h0s0,0,.011-.007v.011h.007s.007-.018.011-.018a.089.089,0,0,1,.007-.025v0c0-.007,0-.014.007-.018v0s0-.011.007-.014l.011-.021c0-.007.007-.011.011-.018a0,0,0,0,1,0,0s0,0,0-.007a0,0,0,0,1,0,0s0-.007.007-.011.011-.014.014-.021,0-.007.007-.011l0,0c.007-.007.011-.018.018-.025a.107.107,0,0,0,.018-.025.539.539,0,0,1,.042-.046l.021-.021.025-.025c.014-.014.032-.028.046-.042a.153.153,0,0,1,.025-.021c.007-.007.018-.014.025-.021s.018-.011.025-.018l.018-.011c.007,0,.014-.011.021-.014s.007,0,.011-.007v0h0a.852.852,0,0,1,.45-.151h0c.053,0,.109-.011.165-.007s.137.007.2.007a.012.012,0,0,1,0-.007,15.357,15.357,0,0,0,.8-2.909,16.349,16.349,0,0,0,.246-2.778v-.088Zm-22.789-4.681a1.053,1.053,0,0,1-1.453-.345c-.317-.517-.623-1.048-.911-1.586a1.056,1.056,0,0,1,1.864-.992c.264.5.549.992.844,1.47a1.055,1.055,0,0,1-.345,1.453Zm3.613,4.312a1.058,1.058,0,0,1-1.5-.028c-.419-.436-.83-.893-1.221-1.365a1.056,1.056,0,0,1,1.622-1.354c.362.433.739.855,1.126,1.256a1.058,1.058,0,0,1-.032,1.491Zm4.471,3.4a1.053,1.053,0,0,1-1.46.306c-.51-.334-1.013-.689-1.5-1.059a1.054,1.054,0,1,1,1.277-1.678c.443.338.908.665,1.375.971a1.06,1.06,0,0,1,.3,1.46Zm5.111,2.321a1.055,1.055,0,0,1-1.358.619c-.57-.215-1.14-.447-1.689-.7a1.055,1.055,0,1,1,.872-1.92c.507.229,1.031.447,1.558.644a1.046,1.046,0,0,1,.616,1.354Zm5.484,1.231a1.053,1.053,0,0,1-1.041.883.95.95,0,0,1-.172-.014c-.6-.1-1.2-.215-1.784-.345a1.054,1.054,0,1,1,.461-2.057c.542.123,1.1.229,1.664.324a1.053,1.053,0,0,1,.872,1.21Z" transform="translate(-53.256 0)"/>
    <path id="Path_23695" data-name="Path 23695" d="M128.2,175.045h-.007c-.151-.014-.306-.028-.457-.046h0a29.359,29.359,0,0,1-18.088-9.039,28.042,28.042,0,0,1-5.831-9.3c-.046-.12-.091-.239-.134-.355a.735.735,0,0,1-.028-.081c-.053-.141-.1-.285-.151-.429a15.977,15.977,0,0,0-.879,1.773c.053.162.113.324.172.489.046.123.091.25.137.376a1.165,1.165,0,0,1,.042.148,1.048,1.048,0,0,1-.327,1.013,1.08,1.08,0,0,1-.331.2l-.095.032a1.086,1.086,0,0,1-.281.039.859.859,0,0,1-.095,0,15.939,15.939,0,0,0,1.277,11.255,15.979,15.979,0,0,0,21.644,6.841,1.037,1.037,0,0,1-.014-.376v0a1.051,1.051,0,0,1,.264-.559,1.062,1.062,0,0,1,.517-.313,1.021,1.021,0,0,1,.415-.021l.225.032c.169.025.334.046.506.067a0,0,0,0,0,0,0c.246-.176.489-.366.728-.556a11.8,11.8,0,0,0,1.249-1.132c-.155-.018-.306-.035-.457-.049ZM104.96,164.758a1.036,1.036,0,0,1-.545.155,1.059,1.059,0,0,1-.9-.506c-.313-.517-.615-1.048-.9-1.583a1.056,1.056,0,1,1,1.864-.992c.267.5.549,1,.841,1.477a1.054,1.054,0,0,1-.355,1.449Zm3.5,4.4a1.04,1.04,0,0,1-.7.271,1.051,1.051,0,0,1-.784-.352c-.4-.447-.8-.914-1.178-1.389a1.056,1.056,0,1,1,1.653-1.315c.352.443.721.879,1.094,1.294a1.053,1.053,0,0,1-.081,1.491Zm4.287,3.633a1.054,1.054,0,0,1-.848.426,1.036,1.036,0,0,1-.63-.211c-.485-.362-.964-.742-1.428-1.136a1.056,1.056,0,1,1,1.365-1.611c.429.362.876.717,1.322,1.052a1.058,1.058,0,0,1,.218,1.481Zm4.924,2.708a1.057,1.057,0,0,1-.953.6,1.025,1.025,0,0,1-.45-.1c-.549-.257-1.094-.538-1.621-.827a1.053,1.053,0,1,1,1.013-1.846c.489.271,1,.528,1.509.767a1.051,1.051,0,0,1,.5,1.4Zm5.349,1.723a1.054,1.054,0,0,1-1.02.788,1,1,0,0,1-.267-.035c-.587-.155-1.175-.324-1.741-.506a1.057,1.057,0,1,1,.647-2.012c.531.172,1.08.331,1.632.475a1.061,1.061,0,0,1,.749,1.291Z" transform="translate(0 -116.479)"/>
  </g>
</svg>
