<svg xmlns="http://www.w3.org/2000/svg" width="18.286" height="20" viewBox="0 0 18.286 20">
  <g id="cricket" transform="translate(-80.506 -10.151)">
    <path id="Path_23725" data-name="Path 23725" d="M455.588,9.682l-1.116-1.116a.456.456,0,0,0-.623,0l-.558.558a.494.494,0,0,0-.131.361l-4.331,4.331a.511.511,0,0,1,.263.2l1.05,1.05a1.366,1.366,0,0,1,.2.263l4.331-4.331a.494.494,0,0,0,.361-.131l.525-.558a.391.391,0,0,0,.164-.3.421.421,0,0,0-.131-.328Z" transform="translate(-356.927 1.708)"/>
    <path id="Path_23726" data-name="Path 23726" d="M91.261,155.221a.252.252,0,0,0-.055-.3l-.883-.883a.259.259,0,0,0-.3-.055,1.763,1.763,0,0,1-.579.11,1.282,1.282,0,0,1-.634-.165.577.577,0,0,0-.69.055L78.3,163.8a.8.8,0,0,0-.221.607,4.607,4.607,0,0,0,2.731,2.731h.138a.741.741,0,0,0,.5-.221l9.82-9.82a.54.54,0,0,0,.055-.69,1.322,1.322,0,0,1-.055-1.186Z" transform="translate(2.435 -138.689)"/>
    <path id="Path_23727" data-name="Path 23727" d="M342.666,410.94a2.544,2.544,0,1,0,2.544,2.544A2.529,2.529,0,0,0,342.666,410.94Z" transform="translate(-251.429 -385.877)"/>
  </g>
</svg>
