<svg xmlns="http://www.w3.org/2000/svg" width="20" height="19.996" viewBox="0 0 20 19.996">
  <g id="esports" transform="translate(-87.437 -17.5)">
    <path id="Path_23732" data-name="Path 23732" d="M341.949,17.85a.35.35,0,1,1-.35-.35.35.35,0,0,1,.35.35" transform="translate(-244.162)"/>
    <path id="Path_23733" data-name="Path 23733" d="M102.773,61.153c-1.046-.007-2.479-.01-4-.013V60.8a1,1,0,0,0-1-1V58.48a1,1,0,0,0-1-1H94.438a.664.664,0,1,1,0-1.328h6a1.328,1.328,0,1,0,0-2.657H98.1a.333.333,0,0,1-.333-.332v-.332a.333.333,0,0,0-.667,0v.332a1,1,0,0,0,1,1h2.333a.664.664,0,1,1,0,1.328h-6a1.328,1.328,0,1,0,0,2.657h2.333a.333.333,0,0,1,.333.332v1.328a1,1,0,0,0-1,1v.335c-1.523,0-2.956.007-4,.013a4.532,4.532,0,0,0-3.4,1.587,5.127,5.127,0,0,0-1.223,4.028A5,5,0,0,0,95.4,70.133a3.4,3.4,0,0,1,4.079,0,5,5,0,0,0,7.918-3.364,5.127,5.127,0,0,0-1.223-4.028,4.532,4.532,0,0,0-3.4-1.587ZM94.6,66.616a.333.333,0,0,1-.333.332H93.105V68.11a.333.333,0,0,1-.333.332h-1a.333.333,0,0,1-.333-.332V66.948H90.273a.333.333,0,0,1-.333-.332v-1a.333.333,0,0,1,.333-.332h1.166V64.126a.333.333,0,0,1,.333-.332h1a.333.333,0,0,1,.333.332v1.162h1.166a.333.333,0,0,1,.333.332Zm5.832.332a.832.832,0,1,1,.589-.243A.835.835,0,0,1,100.437,66.948Zm2,1.992a.832.832,0,1,1,.589-.243A.835.835,0,0,1,102.436,68.941Zm0-3.985a.832.832,0,1,1,.589-.243A.835.835,0,0,1,102.436,64.956Zm2,1.992a.832.832,0,1,1,.589-.243A.835.835,0,0,1,104.436,66.948Z" transform="translate(0 -33.604)"/>
  </g>
</svg>
