<svg xmlns="http://www.w3.org/2000/svg" width="32" height="32" viewBox="0 0 32 32">
  <g id="football" transform="translate(-150.287 -79.743)">
    <path id="Path_23696" data-name="Path 23696" d="M167.431,111.679a9.4,9.4,0,0,1-2.226,0,16.14,16.14,0,0,1-11.354-5.982,15.275,15.275,0,0,1-3.361-12.322,15.986,15.986,0,1,1,16.941,18.308Zm6.817-17.132a1.894,1.894,0,0,0-.377-.546c-1.171-.948-2.352-1.888-3.563-2.779a1.183,1.183,0,0,0-.929-.081c-1.382.452-2.733,1-4.119,1.441a1.046,1.046,0,0,0-.821.984c-.229,1.647-.5,3.289-.718,4.94a.952.952,0,0,0,.242.734c1.23,1.042,2.49,2.058,3.761,3.051a.873.873,0,0,0,.7.179c1.508-.635,3-1.306,4.488-2a.834.834,0,0,0,.4-.523c.319-1.736.606-3.481.933-5.4Zm-4.721-7.306a10.48,10.48,0,0,1,.1-1.253.928.928,0,0,0-.615-1.11c-1.037-.528-2.028-1.136-3.06-1.669a1.487,1.487,0,0,0-.965-.17c-1.243.345-2.473.752-3.7,1.159a1.689,1.689,0,0,0-1.382,1.839,6.28,6.28,0,0,1-.144,1.177c-.26,1.928-.26,1.933,1.4,2.85.947.523,1.876,1.374,2.863,1.454,1.014.081,2.1-.577,3.146-.94,2.239-.787,2.239-.792,2.347-3.338Zm-7.539,21.01c1.418-.219,2.728-.407,4.03-.649a.788.788,0,0,0,.449-.519c.251-.971.413-1.96.682-2.926a.824.824,0,0,0-.372-.993c-1.2-.948-2.374-1.942-3.595-2.873a1.489,1.489,0,0,0-1-.264c-1.283.157-2.567.367-3.837.609a.966.966,0,0,0-.624.541,26.114,26.114,0,0,0-.732,2.913,1.061,1.061,0,0,0,.323.859c1.328,1.042,2.693,2.04,4.057,3.034a2.487,2.487,0,0,0,.615.268Zm14.7-5.364c.983-.5,1.916-.94,2.809-1.445a1.437,1.437,0,0,0,.543-.716,13.883,13.883,0,0,0,.763-7.154,4.519,4.519,0,0,0-2.329-1.638,1.2,1.2,0,0,0-.44.322c-.673.6-1.369,1.168-2,1.808a2.244,2.244,0,0,0-.592,1.051c-.31,1.553-.57,3.114-.8,4.676a1.372,1.372,0,0,0,.2.935c.556.734,1.193,1.405,1.849,2.161ZM158.743,85.138c-.516-.085-.906-.13-1.292-.215a1.6,1.6,0,0,0-1.674.555,15.3,15.3,0,0,0-3.388,5.579c-.633,1.893-.628,1.875,1.234,2.6a.7.7,0,0,0,.943-.233c1.108-1.315,2.248-2.6,3.37-3.906a1,1,0,0,0,.269-.47c.193-1.276.359-2.555.539-3.911Zm-7.1,9.145c0,.6,0,1.123,0,1.642a14.44,14.44,0,0,0,2.338,7.687c.328.51,1.535.725,1.669.287.373-1.2.642-2.438.916-3.669.031-.139-.139-.331-.224-.492a36.735,36.735,0,0,1-1.786-3.436c-.525-1.333-1.656-1.61-2.912-2.018Zm14.612-13.216c-.076.085-.157.17-.233.255.215.268.377.626.655.8,1.131.68,2.293,1.311,3.451,1.937a2.21,2.21,0,0,0,.749.2c1.306.165,2.612.331,3.922.465a2.489,2.489,0,0,0,.736-.17,13.672,13.672,0,0,0-9.281-3.481Zm-4.227,28.608a14.513,14.513,0,0,0,9.119-.215C168.118,108.976,165.165,108.587,162.028,109.674Zm14.607-24.353c-.1.031-.2.058-.305.09a4.441,4.441,0,0,0,.242.738c.709,1.32,1.49,2.6,2.132,3.955a2.277,2.277,0,0,0,1.557,1.172,14.428,14.428,0,0,0-3.626-5.955Zm-2.36,22.568c1.337-.555,4.052-3.311,4.34-4.591a6.516,6.516,0,0,0-1.625,1.011C175.98,105.5,175.1,106.788,174.275,107.889Z" transform="translate(0 0)"/>
  </g>
</svg>
