<svg xmlns="http://www.w3.org/2000/svg" width="20" height="16.744" viewBox="0 0 20 16.744">
  <g id="formula" transform="translate(-109.194 -78.402)">
    <path id="Path_23730" data-name="Path 23730" d="M117.617,78.4a9.656,9.656,0,0,0-5.8,2.028,6.306,6.306,0,0,0-2.624,4.761c0,3.19,1.378,5.109,2.631,7.283a.236.236,0,0,0,.167.116c4.636.692,8.811,1.162,12.515,2.544a.235.235,0,0,0,.167-.007,12.044,12.044,0,0,0,4-2.958,1.891,1.891,0,0,0,.516-1.076,18.037,18.037,0,0,0-3.452-8.795,10.992,10.992,0,0,0-1.7-1.7L124,80.539c-.005,0-.009.011-.014.014a10.114,10.114,0,0,0-6.359-2.152h-.007Zm6.344,2.733a10.711,10.711,0,0,1,1.417,1.454,17.415,17.415,0,0,1,3.307,8.25,40.476,40.476,0,0,0-12.958-2.2l-.857-2.689a48.544,48.544,0,0,0,9.092-4.819Zm1.119,9.129c1.24.306,2.435.663,3.59,1.061a3.149,3.149,0,0,1-.567.8l-2.871-1.1Z" transform="translate(0 0)"/>
  </g>
</svg>
