<svg xmlns="http://www.w3.org/2000/svg" width="18.667" height="20" viewBox="0 0 18.667 20">
  <g id="league" transform="translate(-193.2 -111.997)">
    <path id="Path_23723" data-name="Path 23723" d="M207.526,114.664a11.4,11.4,0,0,1,6.625,2.537,16.056,16.056,0,0,1-2.279,7.933l-1.061-1.063h0A13.778,13.778,0,0,0,201.227,120h-2.7c1.617,9.877,9,12,9,12s9.317-2.667,9.317-16c0,0-3.993-4-9.317-4a11.624,11.624,0,0,0-3.567.583,4.637,4.637,0,0,1,.9,2.513,8.933,8.933,0,0,1,2.662-.43Zm-5.547,8.043a11.128,11.128,0,0,1,6.951,3.247l1.258,1.267a10.229,10.229,0,0,1-2.662,1.907,11.345,11.345,0,0,1-5.547-6.42Z" transform="translate(-4.976 0)"/>
    <path id="Path_23724" data-name="Path 23724" d="M197.6,136.6a2.2,2.2,0,1,1-2.2-2.2,2.2,2.2,0,0,1,2.2,2.2" transform="translate(0 -20.934)"/>
  </g>
</svg>
