<svg xmlns="http://www.w3.org/2000/svg" width="20" height="20" viewBox="0 0 20 20">
  <g id="motorsports" transform="translate(-87.501 -17.499)">
    <path id="Path_23739" data-name="Path 23739" d="M107.058,24.539v0a9.865,9.865,0,0,0-.51-1.3.224.224,0,0,0-.013-.027,9.976,9.976,0,0,0-2.76-3.5.165.165,0,0,0-.027-.023c-.213-.167-.447-.343-.69-.507a10.013,10.013,0,0,0-11.113,0c-.227.153-.44.313-.7.517a10.029,10.029,0,0,0-2.773,3.51.1.1,0,0,0-.013.027,10.183,10.183,0,0,0-.51,1.3,10.02,10.02,0,0,0,6.224,12.39c.23.083.47.157.7.217a9.994,9.994,0,0,0,5.387-.033c.2-.057.41-.123.643-.207a10.021,10.021,0,0,0,6.157-12.367Zm-6.61,10.4a.333.333,0,0,0,.2-.387l-1.057-4.457a3.314,3.314,0,0,1-4.2-.023l-1,4.5h0a.338.338,0,0,0,.207.383A8.05,8.05,0,0,1,89.5,27.5a7.826,7.826,0,0,1,.272-2.056.333.333,0,0,0,.182.366l4.227,2.01c-.01-.1-.013-.21-.013-.32h0a3.321,3.321,0,0,1,2.3-3.17l-2.813-3.51a.335.335,0,0,0-.44-.07,7.987,7.987,0,0,1,8.58,0,.334.334,0,0,0-.44.07l-2.813,3.51a3.32,3.32,0,0,1,2.3,3.17,2.551,2.551,0,0,1-.017.323l4.23-2.013a.331.331,0,0,0,.18-.387,8,8,0,0,1-4.78,9.513Z" transform="translate(0 0)"/>
    <path id="Path_23740" data-name="Path 23740" d="M283.3,210.132a2.605,2.605,0,0,0-1.535,0A2.527,2.527,0,0,0,280,212.55a2.324,2.324,0,0,0,.047.48,2.534,2.534,0,0,0,4.974.007,2.35,2.35,0,0,0,.048-.486,2.527,2.527,0,0,0-1.767-2.418Z" transform="translate(-185.033 -185.052)"/>
  </g>
</svg>
