<svg xmlns="http://www.w3.org/2000/svg" width="32" height="32" viewBox="0 0 32 32">
  <g id="nba" transform="translate(-98 -28.559)">
    <path id="Path_23686" data-name="Path 23686" d="M536,251.547c-.679-.136-1.29-.815-1.766-1.8a14.455,14.455,0,0,0,3.939-7.267,16.694,16.694,0,0,1,.17,2.275,15.1,15.1,0,0,1-1.494,6.554.887.887,0,0,1-.849.238Z" transform="translate(-408.348 -200.037)"/>
    <path id="Path_23687" data-name="Path 23687" d="M245.9,42.21a18.95,18.95,0,0,0,1.121,6.418,23.371,23.371,0,0,1-2.377,2.038,66.153,66.153,0,0,0-4.958-8.659,62.679,62.679,0,0,0-6.86-8.9,14.33,14.33,0,0,0-3.226-2.683,15.049,15.049,0,0,1,7.3-1.868,15.529,15.529,0,0,1,4.38.645,15.568,15.568,0,0,1,4.177,8.082,43.577,43.577,0,0,1,.442,4.924Z" transform="translate(-122.747)"/>
    <path id="Path_23688" data-name="Path 23688" d="M454.6,61.607a45.343,45.343,0,0,0-.441-4.992A15.327,15.327,0,0,0,450.8,49.28a15.45,15.45,0,0,1,7.641,7.267c1.528,3.192.272,7.3-2.887,10.833a16.859,16.859,0,0,1-.951-5.773Z" transform="translate(-329.967 -19.465)"/>
    <path id="Path_23689" data-name="Path 23689" d="M121.185,72a65.379,65.379,0,0,1,6.792,8.761,71.069,71.069,0,0,1,4.958,8.693,23.822,23.822,0,0,1-2.547,1.494,1.826,1.826,0,0,1-.374.17c-1.087-1.868-3.09-2.717-5.569-3.769-.509-.238-1.053-.442-1.63-.713l-.374-.136c-3.294-1.46-9.44-4.211-11-9.372a15.287,15.287,0,0,1,6.078-7.81c.272-.068,1.325.272,3.668,2.683Z" transform="translate(-12.624 -38.284)"/>
    <path id="Path_23690" data-name="Path 23690" d="M385.706,420.614a3.659,3.659,0,0,0,.306-3.464,2.08,2.08,0,0,1,.407-.17,25.706,25.706,0,0,0,2.513-1.46c.034.034.034.1.068.136,1.324,3.124,1.189,4.211,1.019,4.415a15.187,15.187,0,0,1-6.418,2.411,6.2,6.2,0,0,0,2.105-1.868Z" transform="translate(-267.246 -361.992)"/>
    <path id="Path_23691" data-name="Path 23691" d="M98.408,222.32c2.173,4.788,7.878,7.335,11.036,8.761l.306.136c.577.272,1.121.475,1.664.713,2.377,1.019,4.143,1.766,5.094,3.328-7.1,3.09-14.4,2.105-16.809-2.377a15.239,15.239,0,0,1-1.7-7.029,15.009,15.009,0,0,1,.407-3.531Z" transform="translate(0 -180.507)"/>
    <path id="Path_23692" data-name="Path 23692" d="M483.839,375.524a19.492,19.492,0,0,0,2.377-2,3.63,3.63,0,0,0,2.241,2,1.657,1.657,0,0,0,.407.034h.034a15.712,15.712,0,0,1-3.735,4.313,12.326,12.326,0,0,0-1.189-4.041,1.337,1.337,0,0,1-.135-.306Z" transform="translate(-361.004 -322.539)"/>
    <path id="Path_23693" data-name="Path 23693" d="M185.824,449.12a2.76,2.76,0,0,1-.238,2.581,6.515,6.515,0,0,1-4.618,2.411,15.324,15.324,0,0,1-9.61-4.448,13.5,13.5,0,0,0,6.011,1.29,21.729,21.729,0,0,0,8.456-1.834Z" transform="translate(-68.91 -393.554)"/>
  </g>
</svg>
