<svg xmlns="http://www.w3.org/2000/svg" width="32" height="32.001" viewBox="0 0 32 32.001">
  <g id="netball" transform="translate(-84.002 -14.003)">
    <path id="Path_23712" data-name="Path 23712" d="M181.065,118.963a165.878,165.878,0,0,0-9.716-23.033c-.284.2-.559.411-.813.628-1.63,1.387-2.516,2.93-2.389,4.145.846,2.362,1.766,4.5,3.033,7.454,1.069,2.488,2.4,5.576,4.174,9.938a10.063,10.063,0,0,0,5.71.869Z" transform="translate(-78.898 -77.229)"/>
    <path id="Path_23713" data-name="Path 23713" d="M257.76,79.567c-.343-6.614-3.568-18.033-9.673-22.877a15.2,15.2,0,0,0-4.353,1.675,165.2,165.2,0,0,1,9.885,23.358,11.587,11.587,0,0,0,4.141-2.156Z" transform="translate(-149.742 -40.239)"/>
    <path id="Path_23714" data-name="Path 23714" d="M89.853,197.34c-.765-1.678-1.4-3.118-1.994-4.616a6.16,6.16,0,0,1-3.591,2.175,15.337,15.337,0,0,0-.266,2.83c0,.441.023.875.059,1.306,1.435-.014,2.736-.515,5.07-1.417l.721-.277Z" transform="translate(0 -167.84)"/>
    <path id="Path_23715" data-name="Path 23715" d="M95.72,297.5c-.481-1.059-.917-2.007-1.316-2.876L94.116,294l-.794.306c-2.4.928-3.772,1.456-5.374,1.5a15.181,15.181,0,0,0,2.934,6.683A18.185,18.185,0,0,1,95.72,297.5Z" transform="translate(-3.72 -262.851)"/>
    <path id="Path_23716" data-name="Path 23716" d="M362.955,68.058a65.347,65.347,0,0,0-7.6-15.659,11.411,11.411,0,0,0-4.745-.592c5.563,4.919,8.551,14.369,9.133,20.7a15.871,15.871,0,0,0,3.209-4.452Z" transform="translate(-249.829 -35.601)"/>
    <path id="Path_23717" data-name="Path 23717" d="M251.934,340.953a16.872,16.872,0,0,1-4.428,5.743.651.651,0,0,1-.42.333,12.6,12.6,0,0,1-7.642,2.674,12.157,12.157,0,0,1-4.874-1.038,5.62,5.62,0,0,0-3.041,2.289,15.25,15.25,0,0,0,21.641-10.171,3.448,3.448,0,0,0-1.236.171Z" transform="translate(-137.574 -306.547)"/>
    <path id="Path_23718" data-name="Path 23718" d="M157.366,383.556a7.209,7.209,0,0,1,3.315-2.706c-.789-1.8-1.486-3.37-2.111-4.754a17.352,17.352,0,0,0-4.426,4.689.642.642,0,0,1-.1.113,15.315,15.315,0,0,0,3.293,2.711.544.544,0,0,1,.03-.053Z" transform="translate(-66.024 -339.835)"/>
    <path id="Path_23719" data-name="Path 23719" d="M97.886,21.973l.06-.128c.007-.013.015-.025.023-.038a7.772,7.772,0,0,1,2.713-3.542,14.261,14.261,0,0,1,1.5-1.034.526.526,0,0,1,.047-.033l.022-.009a15.813,15.813,0,0,1,10.63-2.129,6.115,6.115,0,0,0-1.031-.881A15.271,15.271,0,0,0,94.9,24.935c1.919-.693,2.287-1.466,2.991-2.962Z" transform="translate(-10.268)"/>
    <path id="Path_23720" data-name="Path 23720" d="M435.659,28.881a.656.656,0,0,1,.207.285,42.692,42.692,0,0,1,2.83,4.594,7.657,7.657,0,0,1,2.7-1.554,15.265,15.265,0,0,0-6.486-4.273c.249.293.5.611.751.948Z" transform="translate(-329.289 -13.131)"/>
    <path id="Path_23721" data-name="Path 23721" d="M558.092,236.494a15.14,15.14,0,0,0-.1-4.949,8.337,8.337,0,0,0-3.256.551c.767,1.792,1.375,3.4,1.74,4.555a7.325,7.325,0,0,1,1.617-.157Z" transform="translate(-442.246 -204.334)"/>
    <path id="Path_23722" data-name="Path 23722" d="M511.77,123.33c.7,1.345,1.351,2.716,1.936,4.025a9.77,9.77,0,0,1,3.483-.649,15.182,15.182,0,0,0-2.438-4.993,6.329,6.329,0,0,0-2.857,1.534.681.681,0,0,1-.124.083Z" transform="translate(-401.744 -101.162)"/>
  </g>
</svg>
