<svg xmlns="http://www.w3.org/2000/svg" width="16.364" height="20" viewBox="0 0 16.364 20">
  <g id="racing" transform="translate(-148.4 -33.602)">
    <path id="Path_23731" data-name="Path 23731" d="M156.582,33.6c-4.574,0-8.182,4.53-8.182,10s3.608,10,8.182,10,8.182-4.532,8.182-10-3.608-10-8.182-10Zm-7.259,9.645a17.319,17.319,0,0,0,14.517.007c0,.057,0,.113,0,.17a12.24,12.24,0,0,1-2.962,1.186.455.455,0,1,0,.234.874,13.611,13.611,0,0,0,2.642-.98c-.924,3.426-4.7,4.557-7.173,4.609-3.643,0-6.586-1.982-7.166-4.581,0-.01,0-.019-.007-.028a13.162,13.162,0,0,0,2.187.859.479.479,0,0,0,.568-.312.469.469,0,0,0-.312-.561,11.673,11.673,0,0,1-2.528-1.072c0-.057,0-.113,0-.17Zm7.259,8.636a1.327,1.327,0,0,1,1.193.682,4.937,4.937,0,0,1-2.394,0,1.291,1.291,0,0,1,1.2-.682Z" transform="translate(0)" fill-rule="evenodd"/>
  </g>
</svg>
