<svg xmlns="http://www.w3.org/2000/svg" width="19.997" height="20" viewBox="0 0 19.997 20">
  <g id="rugby" transform="translate(-232.611 -162.605)">
    <path id="Path_23734" data-name="Path 23734" d="M401.66,163.242a.663.663,0,0,0-.632-.632,13.153,13.153,0,0,0-3.653.417l3.852,3.875a13.288,13.288,0,0,0,.434-3.653Z" transform="translate(-149.054)"/>
    <path id="Path_23735" data-name="Path 23735" d="M248.744,178.7a19.156,19.156,0,0,0-4.642,7.412l6.519,6.523a19.559,19.559,0,0,0,12.06-12.064l-6.519-6.523A19.223,19.223,0,0,0,248.744,178.7Zm8.351.923h0a.623.623,0,0,1,0,.879l-.7.7,1.12,1.125a.618.618,0,0,1-.87.879l-1.13-1.13-1.243,1.262,1.125,1.125a.624.624,0,0,1,0,.879.634.634,0,0,1-.879,0l-1.125-1.125-1.262,1.257,1.13,1.13a.624.624,0,0,1-.442,1.056.59.59,0,0,1-.437-.187l-1.125-1.12-.7.7a.622.622,0,1,1-.879-.879l.7-.7-1.12-1.125a.619.619,0,0,1,.87-.879l1.13,1.13,1.258-1.262-1.125-1.125a.624.624,0,1,1,.879-.879l1.125,1.125,1.262-1.257-1.13-1.13a.619.619,0,0,1,.879-.87l1.125,1.12.7-.7a.623.623,0,0,1,.879,0Z" transform="translate(-10.79 -10.746)"/>
    <path id="Path_23736" data-name="Path 23736" d="M232.615,330.64a.663.663,0,0,0,.632.656,13.265,13.265,0,0,0,3.65-.417l-3.865-3.893A13.283,13.283,0,0,0,232.615,330.64Z" transform="translate(0 -148.696)"/>
  </g>
</svg>
