<svg xmlns="http://www.w3.org/2000/svg" width="21.739" height="20" viewBox="0 0 21.739 20">
  <path id="snooker" d="M88.259,33.813A4.4,4.4,0,0,0,85,28.161a4.342,4.342,0,0,0-4.13-5.761,4.388,4.388,0,0,0-4.13,5.761,4.319,4.319,0,0,0-3.261,5.652A4.413,4.413,0,0,0,70,38.052,4.361,4.361,0,0,0,74.346,42.4a4.075,4.075,0,0,0,3.261-1.522A4.429,4.429,0,0,0,80.868,42.4a4.075,4.075,0,0,0,3.261-1.522A4.429,4.429,0,0,0,87.389,42.4a4.361,4.361,0,0,0,4.348-4.348,4.235,4.235,0,0,0-3.478-4.239ZM86.3,32.4a2.174,2.174,0,1,1-2.174-2.174A2.18,2.18,0,0,1,86.3,32.4Zm-5.435-7.826a2.174,2.174,0,1,1-2.174,2.174A2.18,2.18,0,0,1,80.868,24.574Zm-3.261,5.652A2.174,2.174,0,1,1,75.433,32.4,2.18,2.18,0,0,1,77.607,30.226Zm-3.261,10a2.174,2.174,0,1,1,2.174-2.174A2.18,2.18,0,0,1,74.346,40.226Zm6.522,0a2.174,2.174,0,1,1,2.174-2.174A2.18,2.18,0,0,1,80.868,40.226Zm6.522,0a2.174,2.174,0,1,1,2.174-2.174A2.18,2.18,0,0,1,87.389,40.226Z" transform="translate(-69.998 -22.4)"/>
</svg>
