<svg xmlns="http://www.w3.org/2000/svg" width="32" height="31.998" viewBox="0 0 32 31.998">
  <g id="tennis" transform="translate(-142.026 -72.589)">
    <path id="Path_23683" data-name="Path 23683" d="M156.3,72.614c-6.8.074-14.024,7.255-14.276,14.024a2.864,2.864,0,0,0,1.412,2.742,18.651,18.651,0,0,0,6.059,2.451,37.178,37.178,0,0,1,8.056,2.378c3.248,1.615,5.284,4.1,5.5,7.809.082,1.434.706,1.659,1.845,1.109a15.992,15.992,0,0,0,7.584-7.519c.585-1.182.494-1.888-1.109-1.984a8.792,8.792,0,0,1-7.584-5.189,27.944,27.944,0,0,1-2.226-7.025,20.547,20.547,0,0,0-2.811-7.445,2.485,2.485,0,0,0-2.451-1.351Z" transform="translate(0 0)"/>
    <path id="Path_23684" data-name="Path 23684" d="M379.46,73.809c2.4,3.76,2.911,7.731,3.911,11.542a13.963,13.963,0,0,0,1.538,3.794,7.288,7.288,0,0,0,5.219,3.638c1.915.3,2.82-.463,2.937-2.408A15.1,15.1,0,0,0,389.8,79.821a15.592,15.592,0,0,0-10.338-6.011Z" transform="translate(-219.071 -1.125)"/>
    <path id="Path_23685" data-name="Path 23685" d="M143.8,310.3A15.757,15.757,0,0,0,159.867,323.9c2.538-.065,3.335-1.074,2.729-3.512-.923-3.69-3.781-5.206-7.073-6.125-3.868-1.083-7.939-1.5-11.72-3.972Z" transform="translate(-1.639 -219.322)"/>
  </g>
</svg>
