<svg xmlns="http://www.w3.org/2000/svg" width="20" height="11" viewBox="0 0 20 11">
  <g id="tna" transform="translate(-126.003 -156.802)">
    <path id="Path_23738" data-name="Path 23738" d="M135.972,156.8a.259.259,0,0,0-.219.258v1.249a.25.25,0,1,0,.5,0v-1.249a.261.261,0,0,0-.281-.258Zm-1.633.7a.263.263,0,0,0-.18.382l.625,1.077a.252.252,0,0,0,.438-.25l-.625-1.077a.256.256,0,0,0-.234-.133h-.023Zm3.242,0a.254.254,0,0,0-.172.133l-.625,1.077a.252.252,0,0,0,.438.25l.625-1.077a.264.264,0,0,0-.242-.382h-.023Zm-4.031,2.115c.885.063,1.77.765,1.93,2.5a2.635,2.635,0,0,1-.164,1.264,1.217,1.217,0,0,1-.641.71,1.947,1.947,0,0,1-1.75-.718,2.927,2.927,0,0,0-1.289-.788,2.242,2.242,0,0,0-1.469.2.25.25,0,1,0,.219.445,1.594,1.594,0,0,1,1.133-.164,1.621,1.621,0,0,1,.8.515,1.828,1.828,0,0,1-.375,1.264.712.712,0,0,1-.711.226,7.457,7.457,0,0,1-2.492-1.155,12.279,12.279,0,0,1-.242-2.747,3.67,3.67,0,0,1,2.2-1.342,8.257,8.257,0,0,1,2.844-.211Zm7.749.211a3.672,3.672,0,0,1,2.2,1.334,12.256,12.256,0,0,1-.227,2.747,7.373,7.373,0,0,1-2.5,1.163.648.648,0,0,1-.719-.226,1.828,1.828,0,0,1-.375-1.264,1.444,1.444,0,0,1,.812-.515,1.574,1.574,0,0,1,1.125.164.25.25,0,1,0,.219-.445,2.214,2.214,0,0,0-1.469-.2,2.929,2.929,0,0,0-1.289.788,2.075,2.075,0,0,1-1.742.718,1.226,1.226,0,0,1-.648-.71,2.3,2.3,0,0,1-.164-1.264c.261-1.7,1.074-2.447,1.93-2.5a8.694,8.694,0,0,1,2.851.211Zm-13.3,1.35a13.55,13.55,0,0,0,.156,2.4,6.352,6.352,0,0,1-1.445,0,.835.835,0,0,1-.516-.273,1.94,1.94,0,0,1-.055-1.584.631.631,0,0,1,.375-.312,9.94,9.94,0,0,1,1.484-.234Zm15.991,0a8.525,8.525,0,0,1,1.484.234.647.647,0,0,1,.383.312,1.913,1.913,0,0,1-.062,1.584.834.834,0,0,1-.516.273,6.31,6.31,0,0,1-1.437,0,15.787,15.787,0,0,0,.148-2.4Zm-9.21,4.456-.625,1.085a.252.252,0,0,0,.438.25l.625-1.085a.266.266,0,0,0-.1-.35c-.168-.054-.2-.008-.335.1Zm2.095-.093a.267.267,0,0,0-.095.343l.625,1.085a.252.252,0,0,0,.438-.25l-.625-1.085A.258.258,0,0,0,136.88,165.544Zm-.907.5a.259.259,0,0,0-.219.258v1.249a.25.25,0,1,0,.5,0V166.3a.261.261,0,0,0-.281-.258Z" transform="translate(0 0)"/>
  </g>
</svg>
